<?xml version="1.0" encoding="UTF-8"?>
<!DOCTYPE svg PUBLIC "-//W3C//DTD SVG 1.1//EN" "http://www.w3.org/Graphics/SVG/1.1/DTD/svg11.dtd">
<!-- Creator: CorelDRAW -->
<svg xmlns="http://www.w3.org/2000/svg" xml:space="preserve" width="42.3332mm" height="42.3332mm" version="1.1" style="shape-rendering:geometricPrecision; text-rendering:geometricPrecision; image-rendering:optimizeQuality; fill-rule:evenodd; clip-rule:evenodd"
viewBox="0 0 4233.32 4233.32"
 xmlns:xlink="http://www.w3.org/1999/xlink"
 xmlns:xodm="http://www.corel.com/coreldraw/odm/2003">
 <defs>
  <style type="text/css">
   <![CDATA[
    .fil0 {fill:white}
    .fil1 {fill:white}
    .fil2 {fill:#1A1A1A;fill-rule:nonzero}
    .fil3 {fill:#F8E69C;fill-rule:nonzero}
   ]]>
  </style>
 </defs>
 <g id="Layer_x0020_1">
  <metadata id="CorelCorpID_0Corel-Layer"/>
  <rect class="fil0" x="-0.01" y="-0.01" width="4233.33" height="4233.33"/>
  <rect class="fil1" x="-0.01" y="-0.01" width="4233.33" height="4233.33"/>
  <path class="fil2" d="M1261.52 2424.84c-33.3,0 -64.49,-8.32 -93.56,-24.97 -29.07,-16.65 -52.35,-41.07 -69.85,-73.24 -17.49,-32.17 -26.24,-71.12 -26.24,-116.84l0 -13.55c0,-45.72 8.75,-84.66 26.24,-116.84 17.5,-32.17 40.64,-56.58 69.43,-73.23 28.79,-16.66 60.11,-24.98 93.98,-24.98 25.4,0 46.71,2.96 63.92,8.89 17.22,5.93 31.19,13.4 41.91,22.44 10.73,9.03 18.91,18.62 24.56,28.78l15.24 0 0 -220.98 106.68 0 0 592.67 -104.99 0 0 -50.8 -15.24 0c-9.59,15.8 -24.41,30.2 -44.45,43.18 -20.04,12.98 -49.25,19.47 -87.63,19.47zm32.17 -93.13c32.74,0 60.12,-10.58 82.13,-31.75 22.01,-21.17 33.02,-52.07 33.02,-92.71l0 -8.47c0,-40.64 -10.86,-71.54 -32.6,-92.71 -21.73,-21.16 -49.24,-31.75 -82.55,-31.75 -32.73,0 -60.11,10.59 -82.12,31.75 -22.02,21.17 -33.02,52.07 -33.02,92.71l0 8.47c0,40.64 11,71.54 33.02,92.71 22.01,21.17 49.39,31.75 82.12,31.75z"/>
  <path id="_1" class="fil2" d="M1632.37 2412.99l0 -419.95 106.68 0 0 419.95 -106.68 0zm53.34 -469.06c-19.19,0 -35.42,-6.2 -48.69,-18.62 -13.26,-12.42 -19.89,-28.79 -19.89,-49.11 0,-20.32 6.63,-36.69 19.89,-49.11 13.27,-12.41 29.5,-18.62 48.69,-18.62 19.75,0 36.12,6.21 49.1,18.62 12.99,12.42 19.48,28.79 19.48,49.11 0,20.32 -6.49,36.69 -19.48,49.11 -12.98,12.42 -29.35,18.62 -49.1,18.62z"/>
  <path id="_2" class="fil2" d="M1987.96 2424.84c-29.91,0 -56.72,-5.22 -80.43,-15.66 -23.71,-10.44 -42.47,-25.68 -56.3,-45.72 -13.83,-20.04 -20.75,-44.45 -20.75,-73.24 0,-28.78 6.92,-52.91 20.75,-72.39 13.83,-19.47 33.02,-34.15 57.57,-44.02 24.55,-9.88 52.64,-14.82 84.24,-14.82l115.15 0 0 -23.71c0,-19.75 -6.21,-35.98 -18.63,-48.68 -12.41,-12.7 -32.17,-19.05 -59.26,-19.05 -26.53,0 -46.29,6.07 -59.27,18.2 -12.98,12.14 -21.45,27.8 -25.4,46.99l-98.21 -33.02c6.77,-21.45 17.64,-41.06 32.59,-58.84 14.96,-17.78 35,-32.17 60.12,-43.18 25.12,-11.01 55.74,-16.51 91.86,-16.51 55.32,0 99.06,13.83 131.23,41.49 32.18,27.65 48.26,67.73 48.26,120.22l0 156.64c0,16.93 7.91,25.4 23.71,25.4l33.87 0 0 88.05 -71.12 0c-20.89,0 -38.1,-5.08 -51.65,-15.24 -13.55,-10.16 -20.32,-23.71 -20.32,-40.64l0 -0.85 -16.09 0c-2.25,6.78 -7.33,15.67 -15.24,26.67 -7.9,11.01 -20.32,20.75 -37.25,29.21 -16.93,8.47 -40.07,12.7 -69.43,12.7zm18.63 -86.36c29.92,0 54.33,-8.32 73.24,-24.97 18.91,-16.65 28.36,-38.81 28.36,-66.47l0 -8.46 -107.53 0c-19.75,0 -35.27,4.23 -46.56,12.7 -11.29,8.46 -16.94,20.32 -16.94,35.56 0,15.24 5.93,27.65 17.78,37.25 11.86,9.6 29.07,14.39 51.65,14.39z"/>
  <path id="_3" class="fil2" d="M2346.96 2412.99l0 -419.95 104.98 0 0 45.72 15.24 0c7.34,-14.11 19.48,-26.39 36.41,-36.83 16.93,-10.44 39.23,-15.66 66.89,-15.66 29.91,0 53.9,5.78 71.96,17.36 18.07,11.57 31.9,26.67 41.49,45.29l15.24 0c9.6,-18.06 23.14,-33.02 40.64,-44.87 17.5,-11.85 42.34,-17.78 74.51,-17.78 25.96,0 49.53,5.5 70.7,16.51 21.16,11.01 38.1,27.66 50.8,49.95 12.7,22.3 19.05,50.38 19.05,84.25l0 276.01 -106.68 0 0 -268.39c0,-23.15 -5.93,-40.5 -17.78,-52.07 -11.86,-11.58 -28.51,-17.36 -49.96,-17.36 -24.27,0 -43.04,7.76 -56.3,23.28 -13.27,15.52 -19.9,37.68 -19.9,66.47l0 248.07 -106.68 0 0 -268.39c0,-23.15 -5.93,-40.5 -17.78,-52.07 -11.85,-11.58 -28.5,-17.36 -49.95,-17.36 -24.27,0 -43.04,7.76 -56.31,23.28 -13.26,15.52 -19.89,37.68 -19.89,66.47l0 248.07 -106.68 0z"/>
  <path id="_4" class="fil3" d="M3136.9 2424.84c-22.57,0 -41.62,-7.48 -57.15,-22.43 -15.52,-14.96 -23.28,-34.29 -23.28,-58 0,-23.71 7.76,-43.04 23.28,-58 15.53,-14.96 34.58,-22.43 57.15,-22.43 23.15,0 42.34,7.62 57.58,22.86 15.24,15.24 22.86,34.71 22.86,58.42 0,23.14 -7.62,42.19 -22.86,57.15 -15.24,14.95 -34.43,22.43 -57.58,22.43z"/>
 </g>
</svg>
